M48
INCH,LZ
;FILE_FORMAT=2:4
;TYPE=PLATED
;Layer: PTH_Through
;EasyEDA v6.5.15, 2022-10-20 09:24:52
;028e3914a6f949ed9ca799ef75e4ed4f,10
;Gerber Generator version 0.2
;Holesize 1 = 0.0120 inch
T01C0.0120
;Holesize 2 = 0.0200 inch
T02C0.0200
;Holesize 3 = 0.0220 inch
T03C0.0220
;Holesize 4 = 0.0280 inch
T04C0.0280
;Holesize 5 = 0.0300 inch
T05C0.0300
;Holesize 6 = 0.0320 inch
T06C0.0320
;Holesize 7 = 0.0350 inch
T07C0.0350
;Holesize 8 = 0.0350 inch
T08C0.0350
;Holesize 9 = 0.0350 inch
T09C0.0350
;Holesize 10 = 0.0360 inch
T10C0.0360
;Holesize 11 = 0.0430 inch
T11C0.0430
;Holesize 12 = 0.0500 inch
T12C0.0500
;Holesize 13 = 0.0510 inch
T13C0.0510
;Holesize 14 = 0.1000 inch
T14C0.1000
%
G05
G90
T01
X020250Y-014700
X026250Y-010250
X022250Y-011300
X021250Y-013000
X025250Y-010950
X013750Y-014600
X020550Y-023100
X016750Y-014600
T02
X035950Y-015565
X035950Y-014679
X035950Y-013793
X035950Y-012907
X035950Y-012021
X036950Y-015122
X036950Y-014236
X036950Y-013350
X036950Y-012464
X036950Y-011578
X037950Y-015565
X037950Y-014679
X037950Y-013793
X037950Y-012907
X037950Y-012021
X036950Y-008872
X036950Y-018714
T03
X002628Y-001733
X002628Y-002678
X002628Y-003622
X002628Y-004567
X006172Y-004567
X006172Y-003622
X006172Y-002678
X006172Y-001733
T04
X012850Y-020650
X014250Y-020550
X015750Y-020650
X007400Y-020600
X008800Y-020500
X010300Y-020600
T05
X004792Y-007150
X003808Y-007150
T06
X009950Y-000956
X009950Y-001744
X012250Y-017550
X013250Y-017550
X014250Y-017550
X015250Y-017550
X016250Y-017550
X017250Y-017550
X018250Y-017550
X019250Y-017550
X020250Y-017550
X021250Y-017550
X022250Y-017550
X023250Y-017550
X024250Y-017550
X025250Y-017550
X026250Y-017550
X026250Y-008550
X025250Y-008550
X024250Y-008550
X023250Y-008550
X022250Y-008550
X021250Y-008550
X020250Y-008550
X019250Y-008550
X018250Y-008550
X017250Y-008550
X016250Y-008550
X015250Y-008550
X014250Y-008550
X013250Y-008550
X012250Y-008550
X011050Y-010550
X011050Y-011550
X011050Y-012550
X011050Y-013550
X011050Y-014550
X011050Y-015550
X033700Y-007950
X029700Y-007950
X033750Y-019650
X029750Y-019650
X033750Y-011300
X029750Y-011300
X033750Y-009650
X029750Y-009650
X033700Y-014700
X029700Y-014700
X033700Y-013000
X029700Y-013000
X033750Y-017950
X029750Y-017950
X033750Y-016250
X029750Y-016250
X012450Y-024800
X016450Y-024800
X012300Y-023050
X016300Y-023050
X010600Y-024800
X006600Y-024800
X006550Y-023050
X010550Y-023050
X032500Y-003450
X028500Y-003450
X032550Y-005250
X028550Y-005250
X032450Y-022100
X028450Y-022100
X032350Y-023950
X028350Y-023950
X025950Y-001350
X021950Y-001350
X025950Y-003350
X021950Y-003350
X025950Y-021050
X021950Y-021050
X026000Y-022850
X022000Y-022850
X019250Y-007050
X019250Y-003050
X017000Y-003750
X013000Y-003750
X007850Y-003750
X011850Y-003750
X000850Y-005800
X000850Y-009800
X000850Y-011050
X000850Y-015050
T07
X029500Y-028000
X029500Y-027000
X030500Y-028000
X030500Y-027000
X031500Y-028000
X031500Y-027000
X028500Y-027000
X028500Y-028000
X027500Y-027000
X027500Y-028000
X026500Y-027000
X026500Y-028000
X025500Y-027000
X025500Y-028000
X024500Y-027000
X024500Y-028000
X023500Y-027000
X023500Y-028000
X022500Y-027000
X022500Y-028000
X021500Y-027000
X021500Y-028000
X020500Y-027000
X020500Y-028000
X019500Y-027000
X019500Y-028000
X018500Y-028000
X017500Y-028000
X018500Y-027000
X017500Y-027000
X016500Y-027000
X015500Y-027000
X014500Y-027000
X013500Y-027000
X012500Y-027000
X011500Y-027000
X010500Y-027000
X009500Y-027000
X008500Y-027000
X007500Y-027000
X016500Y-028000
X015500Y-028000
X014500Y-028000
X013500Y-028000
X012500Y-028000
X011500Y-028000
X010500Y-028000
X009500Y-028000
X008500Y-028000
X007500Y-028000
T08
X037230Y-002990
X037230Y-004010
X037230Y-004840
X037230Y-002160
X038210Y-002160
X038190Y-004840
X037280Y-023740
X037280Y-024760
X037280Y-025590
X037280Y-022910
X038260Y-022910
X038240Y-025590
T09
X003263Y-011050
X004877Y-011050
T10
X015837Y-001500
X012963Y-001500
X008963Y-006100
X011837Y-006100
X000850Y-001763
X000850Y-004637
X002513Y-015050
X005387Y-015050
X021350Y-025500
X022350Y-025500
T11
X008000Y-010600
X008000Y-011600
X008000Y-012600
X008000Y-013600
X008000Y-014600
X008000Y-015600
T12
X036260Y-000820G85X035840Y-000820
X036260Y-006160G85X035840Y-006160
X035730Y-003290G85X035730Y-003710
X036310Y-021570G85X035890Y-021570
X036310Y-026910G85X035890Y-026910
X035780Y-024040G85X035780Y-024460
T13
X001565Y-021050
X003535Y-020070
X003535Y-019080
X003535Y-022030
X003535Y-023020
T14
X011050Y-009050
X011050Y-017050
M30
