M48
INCH,LZ
;FILE_FORMAT=2:4
;TYPE=PLATED
;Layer: PTH_Through
;EasyEDA v6.5.22, 2022-12-31 13:37:04
;028e3914a6f949ed9ca799ef75e4ed4f,10
;Gerber Generator version 0.2
;Holesize 1 = 0.0220 inch
T01C0.0220
;Holesize 2 = 0.0280 inch
T02C0.0280
;Holesize 3 = 0.0300 inch
T03C0.0300
;Holesize 4 = 0.0320 inch
T04C0.0320
;Holesize 5 = 0.0350 inch
T05C0.0350
;Holesize 6 = 0.0350 inch
T06C0.0350
;Holesize 7 = 0.0350 inch
T07C0.0350
;Holesize 8 = 0.0360 inch
T08C0.0360
;Holesize 9 = 0.0430 inch
T09C0.0430
;Holesize 10 = 0.0470 inch
T10C0.0470
;Holesize 11 = 0.0500 inch
T11C0.0500
;Holesize 12 = 0.0510 inch
T12C0.0510
;Holesize 13 = 0.1000 inch
T13C0.1000
;Holesize 14 = 0.1260 inch
T14C0.1260
%
G05
G90
T01
X002628Y-001733
X002628Y-002678
X002628Y-003622
X002628Y-004567
X006172Y-004567
X006172Y-003622
X006172Y-002678
X006172Y-001733
T02
X012850Y-020650
X014250Y-020550
X015750Y-020650
X007400Y-020600
X008800Y-020500
X010300Y-020600
T03
X004792Y-007150
X003808Y-007150
T04
X009950Y-000956
X009950Y-001744
X012250Y-017550
X013250Y-017550
X014250Y-017550
X015250Y-017550
X016250Y-017550
X017250Y-017550
X018250Y-017550
X019250Y-017550
X020250Y-017550
X021250Y-017550
X022250Y-017550
X023250Y-017550
X024250Y-017550
X025250Y-017550
X026250Y-017550
X026250Y-008550
X025250Y-008550
X024250Y-008550
X023250Y-008550
X022250Y-008550
X021250Y-008550
X020250Y-008550
X019250Y-008550
X018250Y-008550
X017250Y-008550
X016250Y-008550
X015250Y-008550
X014250Y-008550
X013250Y-008550
X012250Y-008550
X011050Y-010550
X011050Y-011550
X011050Y-012550
X011050Y-013550
X011050Y-014550
X011050Y-015550
X033700Y-007950
X029700Y-007950
X033750Y-019650
X029750Y-019650
X033750Y-011300
X029750Y-011300
X033750Y-009650
X029750Y-009650
X033700Y-014700
X029700Y-014700
X033700Y-013000
X029700Y-013000
X033750Y-017950
X029750Y-017950
X033750Y-016250
X029750Y-016250
X012300Y-024850
X016300Y-024850
X012300Y-023050
X016300Y-023050
X010750Y-024850
X006750Y-024850
X006750Y-023050
X010750Y-023050
X032300Y-004150
X028300Y-004150
X032250Y-002350
X028250Y-002350
X032400Y-024550
X028400Y-024550
X032350Y-022650
X028350Y-022650
X026250Y-004200
X022250Y-004200
X026250Y-002400
X022250Y-002400
X026400Y-024550
X022400Y-024550
X026350Y-022600
X022350Y-022600
X019250Y-007050
X019250Y-003050
X017000Y-003750
X013000Y-003750
X007850Y-003750
X011850Y-003750
X000850Y-005800
X000850Y-009800
X000850Y-011050
X000850Y-015050
T05
X029500Y-028000
X029500Y-027000
X030500Y-028000
X030500Y-027000
X031500Y-028000
X031500Y-027000
X028500Y-027000
X028500Y-028000
X027500Y-027000
X027500Y-028000
X026500Y-027000
X026500Y-028000
X025500Y-027000
X025500Y-028000
X024500Y-027000
X024500Y-028000
X023500Y-027000
X023500Y-028000
X022500Y-027000
X022500Y-028000
X021500Y-027000
X021500Y-028000
X020500Y-027000
X020500Y-028000
X019500Y-027000
X019500Y-028000
X018500Y-028000
X017500Y-028000
X018500Y-027000
X017500Y-027000
X016500Y-027000
X015500Y-027000
X014500Y-027000
X013500Y-027000
X012500Y-027000
X011500Y-027000
X010500Y-027000
X009500Y-027000
X008500Y-027000
X007500Y-027000
X016500Y-028000
X015500Y-028000
X014500Y-028000
X013500Y-028000
X012500Y-028000
X011500Y-028000
X010500Y-028000
X009500Y-028000
X008500Y-028000
X007500Y-028000
T06
X035770Y-004210
X035770Y-003190
X035770Y-002360
X035770Y-005040
X034790Y-005040
X034810Y-002360
X035720Y-024510
X035720Y-023490
X035720Y-022660
X035720Y-025340
X034740Y-025340
X034760Y-022660
T07
X003263Y-011050
X004877Y-011050
T08
X023800Y-020850
X022800Y-020850
X018500Y-020850
X019500Y-020850
X015837Y-001500
X012963Y-001500
X008963Y-006100
X011837Y-006100
X000850Y-001763
X000850Y-004637
X002513Y-015050
X005387Y-015050
T09
X008000Y-010600
X008000Y-011600
X008000Y-012600
X008000Y-013600
X008000Y-014600
X008000Y-015600
T10
X035850Y-015693
X035850Y-014808
X035850Y-013922
X035850Y-013036
X035850Y-012150
X036850Y-015251
X036850Y-014365
X036850Y-013479
X036850Y-012593
X036850Y-011707
X037850Y-015693
X037850Y-014808
X037850Y-013922
X037850Y-013036
X037850Y-012150
T11
X036740Y-006380G85X037160Y-006380
X036740Y-001040G85X037160Y-001040
X037270Y-003910G85X037270Y-003490
X036690Y-026680G85X037110Y-026680
X036690Y-021340G85X037110Y-021340
X037220Y-024210G85X037220Y-023790
T12
X001565Y-021050
X003535Y-020070
X003535Y-019080
X003535Y-022030
X003535Y-023020
T13
X011050Y-009050
X011050Y-017050
T14
X036850Y-018622
X036850Y-008779
M30
