G04 Layer: TopLayer*
G04 EasyEDA v6.5.15, 2022-10-20 09:24:52*
G04 028e3914a6f949ed9ca799ef75e4ed4f,10*
G04 Gerber Generator version 0.2*
G04 Scale: 100 percent, Rotated: No, Reflected: No *
G04 Dimensions in inches *
G04 leading zeros omitted , absolute positions ,3 integer and 6 decimal *
%FSLAX36Y36*%
%MOIN*%

%ADD10C,0.0120*%
%ADD11C,0.0600*%
%ADD12C,0.0512*%
%ADD13R,0.0787X0.0787*%
%ADD14C,0.0787*%
%ADD15O,0.11810999999999999X0.070866*%
%ADD16R,0.1181X0.0709*%
%ADD17C,0.0590*%
%ADD18R,0.0590X0.0590*%
%ADD19C,0.0860*%
%ADD20C,0.0598*%
%ADD21C,0.0709*%
%ADD22C,0.1500*%
%ADD23O,0.062X0.07*%
%ADD24R,0.0620X0.0620*%
%ADD25O,0.138X0.1*%
%ADD26O,0.1X0.138*%
%ADD27R,0.0560X0.0560*%
%ADD28R,0.0591X0.0591*%
%ADD29C,0.0591*%
%ADD30C,0.0630*%
%ADD31C,0.1417*%
%ADD32C,0.0240*%
%ADD33C,0.0169*%

%LPD*%
D10*
X326260Y-1105000D02*
G01*
X325000Y-1103739D01*
X325000Y-565000D01*
X335000Y-555000D01*
X620000Y-555000D01*
X617159Y-552159D01*
X617159Y-456730D01*
X353499Y-1908000D02*
G01*
X420000Y-1841500D01*
X420000Y-1110000D01*
X425000Y-1105000D01*
X487680Y-1105000D01*
X2855000Y-525000D02*
G01*
X1730000Y-525000D01*
X1730000Y-850000D01*
X1725000Y-855000D01*
X3795000Y-1379290D02*
G01*
X3820709Y-1379290D01*
X3875000Y-1325000D01*
X3875000Y-1060000D01*
X3595000Y-1060000D01*
X3595000Y-1020000D01*
X3370000Y-795000D01*
X3795000Y-1467869D02*
G01*
X3795000Y-1470000D01*
X3875000Y-1550000D01*
X3875000Y-1725000D01*
X3535000Y-1725000D01*
X3535000Y-1965000D01*
X3375000Y-1965000D01*
X655000Y-2305000D02*
G01*
X755000Y-2405000D01*
X1150000Y-2405000D01*
X1230000Y-2325000D01*
X1230000Y-2305000D01*
X3255000Y-525000D02*
G01*
X3640000Y-525000D01*
X3665000Y-550000D01*
X3820000Y-550000D01*
X3818999Y-549000D01*
X3818999Y-484000D01*
X3235000Y-2395000D02*
G01*
X3450000Y-2610000D01*
X3825000Y-2610000D01*
X3823999Y-2609000D01*
X3823999Y-2559000D01*
X1645000Y-2480000D02*
G01*
X1645000Y-2390000D01*
X2200000Y-2390000D01*
X2200000Y-2285000D01*
X262829Y-362240D02*
G01*
X310590Y-410000D01*
X720000Y-410000D01*
X755000Y-375000D01*
X785000Y-375000D01*
X1230000Y-2305000D02*
G01*
X1430000Y-2305000D01*
X1430000Y-2610000D01*
X2235000Y-2610000D01*
X2235000Y-2550000D01*
X3245000Y-2210000D02*
G01*
X3245000Y-2295000D01*
X3500000Y-2550000D01*
X3575000Y-2550000D01*
X3648999Y-2475999D01*
X3728000Y-2475999D01*
X2235000Y-2550000D02*
G01*
X3060000Y-2550000D01*
X3060000Y-2110000D01*
X3415000Y-2110000D01*
X3596000Y-2290999D01*
X3728000Y-2290999D01*
X2025000Y-1755000D02*
G01*
X2025000Y-1470000D01*
X2125000Y-1755000D02*
G01*
X2125000Y-1300000D01*
X2225000Y-1755000D02*
G01*
X2225000Y-1130000D01*
X2625000Y-1755000D02*
G01*
X2625000Y-1025000D01*
X2525000Y-1755000D02*
G01*
X2525000Y-1090000D01*
X1625000Y-855000D02*
G01*
X1975000Y-1205000D01*
X1975000Y-1900000D01*
X2535000Y-1900000D01*
X2845000Y-2210000D01*
X1525000Y-855000D02*
G01*
X1875000Y-1205000D01*
X1875000Y-1960000D01*
X2105000Y-2190000D01*
X2415000Y-2190000D01*
X2620000Y-2395000D01*
X2835000Y-2395000D01*
X740000Y-2060000D02*
G01*
X890000Y-1910000D01*
X890000Y-1885000D01*
X895000Y-1890000D01*
X1375000Y-1890000D01*
X1375000Y-1460000D01*
X1105000Y-1355000D02*
G01*
X1110000Y-1360000D01*
X1775000Y-1360000D01*
X1775000Y-2310000D01*
X2055000Y-2310000D01*
X1285000Y-2065000D02*
G01*
X1460000Y-1890000D01*
X1675000Y-1890000D01*
X1675000Y-1460000D01*
X479209Y-715000D02*
G01*
X655000Y-890790D01*
X655000Y-2305000D01*
X3250000Y-345000D02*
G01*
X3255000Y-350000D01*
X3380000Y-350000D01*
X3375000Y-480000D01*
X3615000Y-475000D01*
X3688999Y-400999D01*
X3723000Y-400999D01*
X3255000Y-525000D02*
G01*
X3255000Y-435000D01*
X2600000Y-435000D01*
X2595000Y-430000D01*
X2595000Y-335000D01*
D11*
G01*
X1583699Y-150000D03*
G01*
X1296300Y-150000D03*
G01*
X896300Y-610000D03*
G01*
X1183699Y-610000D03*
G01*
X85000Y-176300D03*
G01*
X85000Y-463699D03*
G01*
X251300Y-1505000D03*
G01*
X538699Y-1505000D03*
D12*
G01*
X995000Y-95630D03*
G01*
X995000Y-174369D03*
D11*
G01*
X479209Y-715000D03*
G01*
X380790Y-715000D03*
D13*
G01*
X326260Y-1105000D03*
D14*
G01*
X487680Y-1105000D03*
D15*
G01*
X800000Y-1060000D03*
G01*
X800000Y-1160000D03*
G01*
X800000Y-1260000D03*
G01*
X800000Y-1360000D03*
G01*
X800000Y-1460000D03*
D16*
G01*
X800000Y-1560000D03*
D17*
G01*
X2135000Y-2550000D03*
D18*
G01*
X2235000Y-2550000D03*
D19*
G01*
X156500Y-2105000D03*
G01*
X353499Y-2006999D03*
G01*
X353499Y-1908000D03*
G01*
X353499Y-2203000D03*
G01*
X353499Y-2301999D03*
D20*
G01*
X262829Y-173270D03*
G01*
X262829Y-267759D03*
G01*
X262829Y-362240D03*
G01*
X262829Y-456729D03*
G01*
X617159Y-456729D03*
G01*
X617159Y-362240D03*
G01*
X617159Y-267759D03*
G01*
X617159Y-173270D03*
D21*
G01*
X1225000Y-1755000D03*
G01*
X1325000Y-1755000D03*
G01*
X1425000Y-1755000D03*
G01*
X1525000Y-1755000D03*
G01*
X1625000Y-1755000D03*
G01*
X1725000Y-1755000D03*
G01*
X1825000Y-1755000D03*
G01*
X1925000Y-1755000D03*
G01*
X2025000Y-1755000D03*
G01*
X2125000Y-1755000D03*
G01*
X2225000Y-1755000D03*
G01*
X2325000Y-1755000D03*
G01*
X2425000Y-1755000D03*
G01*
X2525000Y-1755000D03*
G01*
X2625000Y-1755000D03*
G01*
X2625000Y-855000D03*
G01*
X2525000Y-855000D03*
G01*
X2425000Y-855000D03*
G01*
X2325000Y-855000D03*
G01*
X2225000Y-855000D03*
G01*
X2125000Y-855000D03*
G01*
X2025000Y-855000D03*
G01*
X1925000Y-855000D03*
G01*
X1825000Y-855000D03*
G01*
X1725000Y-855000D03*
G01*
X1625000Y-855000D03*
G01*
X1525000Y-855000D03*
G01*
X1425000Y-855000D03*
G01*
X1325000Y-855000D03*
G01*
X1225000Y-855000D03*
G01*
X1105000Y-1055000D03*
G01*
X1105000Y-1155000D03*
G01*
X1105000Y-1255000D03*
G01*
X1105000Y-1355000D03*
G01*
X1105000Y-1455000D03*
G01*
X1105000Y-1555000D03*
D22*
G01*
X1105000Y-905000D03*
G01*
X1105000Y-1705000D03*
D23*
G01*
X2950000Y-2800000D03*
G01*
X2950000Y-2700000D03*
G01*
X3050000Y-2800000D03*
G01*
X3050000Y-2700000D03*
G01*
X3150000Y-2800000D03*
D24*
G01*
X3150000Y-2700000D03*
D23*
G01*
X2850000Y-2700000D03*
G01*
X2850000Y-2800000D03*
G01*
X2750000Y-2700000D03*
G01*
X2750000Y-2800000D03*
G01*
X2650000Y-2700000D03*
G01*
X2650000Y-2800000D03*
G01*
X2550000Y-2700000D03*
G01*
X2550000Y-2800000D03*
G01*
X2450000Y-2700000D03*
G01*
X2450000Y-2800000D03*
G01*
X2350000Y-2700000D03*
G01*
X2350000Y-2800000D03*
G01*
X2250000Y-2700000D03*
G01*
X2250000Y-2800000D03*
G01*
X2150000Y-2700000D03*
G01*
X2150000Y-2800000D03*
G01*
X2050000Y-2700000D03*
G01*
X2050000Y-2800000D03*
G01*
X1950000Y-2700000D03*
G01*
X1950000Y-2800000D03*
G01*
X1850000Y-2800000D03*
G01*
X1750000Y-2800000D03*
G01*
X1850000Y-2700000D03*
G01*
X1750000Y-2700000D03*
G01*
X1650000Y-2700000D03*
G01*
X1550000Y-2700000D03*
G01*
X1450000Y-2700000D03*
G01*
X1350000Y-2700000D03*
G01*
X1250000Y-2700000D03*
G01*
X1150000Y-2700000D03*
G01*
X1050000Y-2700000D03*
G01*
X950000Y-2700000D03*
G01*
X850000Y-2700000D03*
G01*
X750000Y-2700000D03*
G01*
X1650000Y-2800000D03*
G01*
X1550000Y-2800000D03*
G01*
X1450000Y-2800000D03*
G01*
X1350000Y-2800000D03*
G01*
X1250000Y-2800000D03*
G01*
X1150000Y-2800000D03*
G01*
X1050000Y-2800000D03*
G01*
X950000Y-2800000D03*
G01*
X850000Y-2800000D03*
G01*
X750000Y-2800000D03*
D25*
G01*
X3605000Y-81999D03*
G01*
X3605000Y-615999D03*
D26*
G01*
X3573000Y-350000D03*
D27*
G01*
X3723000Y-299000D03*
G01*
X3723000Y-400999D03*
G01*
X3723000Y-484000D03*
G01*
X3723000Y-215999D03*
G01*
X3821000Y-215999D03*
G01*
X3818999Y-484000D03*
D25*
G01*
X3610000Y-2156999D03*
G01*
X3610000Y-2690999D03*
D26*
G01*
X3578000Y-2425000D03*
D27*
G01*
X3728000Y-2374000D03*
G01*
X3728000Y-2475999D03*
G01*
X3728000Y-2559000D03*
G01*
X3728000Y-2290999D03*
G01*
X3826000Y-2290999D03*
G01*
X3823999Y-2559000D03*
D28*
G01*
X1285000Y-2065000D03*
D29*
G01*
X1425000Y-2055000D03*
G01*
X1575000Y-2065000D03*
D28*
G01*
X740000Y-2060000D03*
D29*
G01*
X880000Y-2050000D03*
G01*
X1030000Y-2060000D03*
D14*
G01*
X3370000Y-795000D03*
G01*
X2970000Y-795000D03*
G01*
X3375000Y-1965000D03*
G01*
X2975000Y-1965000D03*
G01*
X3375000Y-1130000D03*
G01*
X2975000Y-1130000D03*
G01*
X3375000Y-965000D03*
G01*
X2975000Y-965000D03*
G01*
X3370000Y-1470000D03*
G01*
X2970000Y-1470000D03*
G01*
X3370000Y-1300000D03*
G01*
X2970000Y-1300000D03*
G01*
X3375000Y-1795000D03*
G01*
X2975000Y-1795000D03*
G01*
X3375000Y-1625000D03*
G01*
X2975000Y-1625000D03*
G01*
X1245000Y-2480000D03*
G01*
X1645000Y-2480000D03*
G01*
X1230000Y-2305000D03*
G01*
X1630000Y-2305000D03*
G01*
X1060000Y-2480000D03*
G01*
X660000Y-2480000D03*
G01*
X655000Y-2305000D03*
G01*
X1055000Y-2305000D03*
G01*
X3250000Y-345000D03*
G01*
X2850000Y-345000D03*
G01*
X3255000Y-525000D03*
G01*
X2855000Y-525000D03*
G01*
X3245000Y-2210000D03*
G01*
X2845000Y-2210000D03*
G01*
X3235000Y-2395000D03*
G01*
X2835000Y-2395000D03*
G01*
X2595000Y-135000D03*
G01*
X2195000Y-135000D03*
G01*
X2595000Y-335000D03*
G01*
X2195000Y-335000D03*
G01*
X2595000Y-2105000D03*
G01*
X2195000Y-2105000D03*
G01*
X2600000Y-2285000D03*
G01*
X2200000Y-2285000D03*
G01*
X1925000Y-705000D03*
G01*
X1925000Y-305000D03*
G01*
X1700000Y-375000D03*
G01*
X1300000Y-375000D03*
G01*
X785000Y-375000D03*
G01*
X1185000Y-375000D03*
G01*
X85000Y-580000D03*
G01*
X85000Y-980000D03*
G01*
X85000Y-1105000D03*
G01*
X85000Y-1505000D03*
D30*
G01*
X3595000Y-1556449D03*
G01*
X3595000Y-1467869D03*
G01*
X3595000Y-1379290D03*
G01*
X3595000Y-1290709D03*
G01*
X3595000Y-1202120D03*
G01*
X3695000Y-1512159D03*
G01*
X3695000Y-1423580D03*
G01*
X3695000Y-1335000D03*
G01*
X3695000Y-1246419D03*
G01*
X3695000Y-1157829D03*
G01*
X3795000Y-1556449D03*
G01*
X3795000Y-1467869D03*
G01*
X3795000Y-1379290D03*
G01*
X3795000Y-1290709D03*
G01*
X3795000Y-1202120D03*
D31*
G01*
X3695000Y-887159D03*
G01*
X3695000Y-1871419D03*
D32*
G01*
X2025000Y-1470000D03*
G01*
X2625000Y-1025000D03*
G01*
X2225000Y-1130000D03*
G01*
X2125000Y-1300000D03*
G01*
X2525000Y-1095000D03*
G01*
X1375000Y-1460000D03*
G01*
X2055000Y-2310000D03*
G01*
X1675000Y-1460000D03*
M02*
