G04 Layer: BottomSolderMaskLayer*
G04 EasyEDA v6.5.15, 2022-10-20 09:24:52*
G04 028e3914a6f949ed9ca799ef75e4ed4f,10*
G04 Gerber Generator version 0.2*
G04 Scale: 100 percent, Rotated: No, Reflected: No *
G04 Dimensions in inches *
G04 leading zeros omitted , absolute positions ,3 integer and 6 decimal *
%FSLAX36Y36*%
%MOIN*%

%AMMACRO1*1,1,$1,$2,$3*1,1,$1,$4,$5*1,1,$1,0-$2,0-$3*1,1,$1,0-$4,0-$5*20,1,$1,$2,$3,$4,$5,0*20,1,$1,$4,$5,0-$2,0-$3,0*20,1,$1,0-$2,0-$3,0-$4,0-$5,0*20,1,$1,0-$4,0-$5,$2,$3,0*4,1,4,$2,$3,$4,$5,0-$2,0-$3,0-$4,0-$5,$2,$3,0*%
%ADD10C,0.0639*%
%ADD11C,0.0552*%
%ADD12C,0.0680*%
%ADD13MACRO1,0.0094X-0.0394X0.0394X0.0394X0.0394*%
%ADD14C,0.0882*%
%ADD15O,0.11810999999999999X0.070866*%
%ADD16MACRO1,0.008X-0.0591X-0.0354X-0.0591X0.0354*%
%ADD17C,0.0630*%
%ADD18MACRO1,0.004X0.0295X-0.0295X-0.0295X-0.0295*%
%ADD19C,0.0900*%
%ADD20C,0.0654*%
%ADD21C,0.0677*%
%ADD22C,0.0749*%
%ADD23C,0.1540*%
%ADD24O,0.062X0.07*%
%ADD25MACRO1,0.008X0.031X-0.031X-0.031X-0.031*%
%ADD26O,0.138X0.1*%
%ADD27O,0.1X0.138*%
%ADD28R,0.0600X0.0600*%
%ADD29MACRO1,0.004X-0.0295X0.0295X0.0295X0.0295*%
%ADD30C,0.0631*%
%ADD31C,0.0867*%
%ADD32C,0.0670*%
%ADD33C,0.1457*%

%LPD*%
D10*
G01*
X1583699Y-150000D03*
G01*
X1296300Y-150000D03*
G01*
X896300Y-610000D03*
G01*
X1183699Y-610000D03*
G01*
X85000Y-176300D03*
G01*
X85000Y-463699D03*
G01*
X251300Y-1505000D03*
G01*
X538699Y-1505000D03*
D11*
G01*
X995000Y-95630D03*
G01*
X995000Y-174369D03*
D12*
G01*
X479209Y-715000D03*
G01*
X380790Y-715000D03*
D13*
G01*
X326259Y-1105000D03*
D14*
G01*
X487680Y-1105000D03*
D15*
G01*
X800000Y-1060000D03*
G01*
X800000Y-1160000D03*
G01*
X800000Y-1260000D03*
G01*
X800000Y-1360000D03*
G01*
X800000Y-1460000D03*
D16*
G01*
X800000Y-1560000D03*
D17*
G01*
X2135000Y-2550000D03*
D18*
G01*
X2235000Y-2550000D03*
D19*
G01*
X156500Y-2105000D03*
G01*
X353499Y-2006999D03*
G01*
X353499Y-1908000D03*
G01*
X353499Y-2203000D03*
G01*
X353499Y-2301999D03*
D20*
G01*
X262829Y-173270D03*
D21*
G01*
X262829Y-267759D03*
G01*
X262829Y-362240D03*
G01*
X262829Y-456729D03*
G01*
X617159Y-456729D03*
G01*
X617159Y-362240D03*
G01*
X617159Y-267759D03*
G01*
X617159Y-173270D03*
D22*
G01*
X1225000Y-1755000D03*
G01*
X1325000Y-1755000D03*
G01*
X1425000Y-1755000D03*
G01*
X1525000Y-1755000D03*
G01*
X1625000Y-1755000D03*
G01*
X1725000Y-1755000D03*
G01*
X1825000Y-1755000D03*
G01*
X1925000Y-1755000D03*
G01*
X2025000Y-1755000D03*
G01*
X2125000Y-1755000D03*
G01*
X2225000Y-1755000D03*
G01*
X2325000Y-1755000D03*
G01*
X2425000Y-1755000D03*
G01*
X2525000Y-1755000D03*
G01*
X2625000Y-1755000D03*
G01*
X2625000Y-855000D03*
G01*
X2525000Y-855000D03*
G01*
X2425000Y-855000D03*
G01*
X2325000Y-855000D03*
G01*
X2225000Y-855000D03*
G01*
X2125000Y-855000D03*
G01*
X2025000Y-855000D03*
G01*
X1925000Y-855000D03*
G01*
X1825000Y-855000D03*
G01*
X1725000Y-855000D03*
G01*
X1625000Y-855000D03*
G01*
X1525000Y-855000D03*
G01*
X1425000Y-855000D03*
G01*
X1325000Y-855000D03*
G01*
X1225000Y-855000D03*
G01*
X1105000Y-1055000D03*
G01*
X1105000Y-1155000D03*
G01*
X1105000Y-1255000D03*
G01*
X1105000Y-1355000D03*
G01*
X1105000Y-1455000D03*
G01*
X1105000Y-1555000D03*
D23*
G01*
X1105000Y-905000D03*
G01*
X1105000Y-1705000D03*
D24*
G01*
X2950000Y-2800000D03*
G01*
X2950000Y-2700000D03*
G01*
X3050000Y-2800000D03*
G01*
X3050000Y-2700000D03*
G01*
X3150000Y-2800000D03*
D25*
G01*
X3150000Y-2700000D03*
D24*
G01*
X2850000Y-2700000D03*
G01*
X2850000Y-2800000D03*
G01*
X2750000Y-2700000D03*
G01*
X2750000Y-2800000D03*
G01*
X2650000Y-2700000D03*
G01*
X2650000Y-2800000D03*
G01*
X2550000Y-2700000D03*
G01*
X2550000Y-2800000D03*
G01*
X2450000Y-2700000D03*
G01*
X2450000Y-2800000D03*
G01*
X2350000Y-2700000D03*
G01*
X2350000Y-2800000D03*
G01*
X2250000Y-2700000D03*
G01*
X2250000Y-2800000D03*
G01*
X2150000Y-2700000D03*
G01*
X2150000Y-2800000D03*
G01*
X2050000Y-2700000D03*
G01*
X2050000Y-2800000D03*
G01*
X1950000Y-2700000D03*
G01*
X1950000Y-2800000D03*
G01*
X1850000Y-2800000D03*
G01*
X1750000Y-2800000D03*
G01*
X1850000Y-2700000D03*
G01*
X1750000Y-2700000D03*
G01*
X1650000Y-2700000D03*
G01*
X1550000Y-2700000D03*
G01*
X1450000Y-2700000D03*
G01*
X1350000Y-2700000D03*
G01*
X1250000Y-2700000D03*
G01*
X1150000Y-2700000D03*
G01*
X1050000Y-2700000D03*
G01*
X950000Y-2700000D03*
G01*
X850000Y-2700000D03*
G01*
X750000Y-2700000D03*
G01*
X1650000Y-2800000D03*
G01*
X1550000Y-2800000D03*
G01*
X1450000Y-2800000D03*
G01*
X1350000Y-2800000D03*
G01*
X1250000Y-2800000D03*
G01*
X1150000Y-2800000D03*
G01*
X1050000Y-2800000D03*
G01*
X950000Y-2800000D03*
G01*
X850000Y-2800000D03*
G01*
X750000Y-2800000D03*
D26*
G01*
X3605000Y-81999D03*
G01*
X3605000Y-615999D03*
D27*
G01*
X3573000Y-350000D03*
D28*
G01*
X3723000Y-299000D03*
G01*
X3723000Y-400999D03*
G01*
X3723000Y-484000D03*
G01*
X3723000Y-215999D03*
G01*
X3821000Y-215999D03*
G01*
X3818999Y-484000D03*
D26*
G01*
X3610000Y-2156999D03*
G01*
X3610000Y-2690999D03*
D27*
G01*
X3578000Y-2425000D03*
D28*
G01*
X3728000Y-2374000D03*
G01*
X3728000Y-2475999D03*
G01*
X3728000Y-2559000D03*
G01*
X3728000Y-2290999D03*
G01*
X3826000Y-2290999D03*
G01*
X3823999Y-2559000D03*
D29*
G01*
X1285000Y-2065000D03*
D30*
G01*
X1425000Y-2055000D03*
G01*
X1575000Y-2065000D03*
D29*
G01*
X740000Y-2060000D03*
D30*
G01*
X880000Y-2050000D03*
G01*
X1030000Y-2060000D03*
D31*
G01*
X3370000Y-795000D03*
G01*
X2970000Y-795000D03*
G01*
X3375000Y-1965000D03*
G01*
X2975000Y-1965000D03*
G01*
X3375000Y-1130000D03*
G01*
X2975000Y-1130000D03*
G01*
X3375000Y-965000D03*
G01*
X2975000Y-965000D03*
G01*
X3370000Y-1470000D03*
G01*
X2970000Y-1470000D03*
G01*
X3370000Y-1300000D03*
G01*
X2970000Y-1300000D03*
G01*
X3375000Y-1795000D03*
G01*
X2975000Y-1795000D03*
G01*
X3375000Y-1625000D03*
G01*
X2975000Y-1625000D03*
G01*
X1245000Y-2480000D03*
G01*
X1645000Y-2480000D03*
G01*
X1230000Y-2305000D03*
G01*
X1630000Y-2305000D03*
G01*
X1060000Y-2480000D03*
G01*
X660000Y-2480000D03*
G01*
X655000Y-2305000D03*
G01*
X1055000Y-2305000D03*
G01*
X3250000Y-345000D03*
G01*
X2850000Y-345000D03*
G01*
X3255000Y-525000D03*
G01*
X2855000Y-525000D03*
G01*
X3245000Y-2210000D03*
G01*
X2845000Y-2210000D03*
G01*
X3235000Y-2395000D03*
G01*
X2835000Y-2395000D03*
G01*
X2595000Y-135000D03*
G01*
X2195000Y-135000D03*
G01*
X2595000Y-335000D03*
G01*
X2195000Y-335000D03*
G01*
X2595000Y-2105000D03*
G01*
X2195000Y-2105000D03*
G01*
X2600000Y-2285000D03*
G01*
X2200000Y-2285000D03*
G01*
X1925000Y-705000D03*
G01*
X1925000Y-305000D03*
G01*
X1700000Y-375000D03*
G01*
X1300000Y-375000D03*
G01*
X785000Y-375000D03*
G01*
X1185000Y-375000D03*
G01*
X85000Y-580000D03*
G01*
X85000Y-980000D03*
G01*
X85000Y-1105000D03*
G01*
X85000Y-1505000D03*
D32*
G01*
X3595000Y-1556449D03*
G01*
X3595000Y-1467869D03*
G01*
X3595000Y-1379290D03*
G01*
X3595000Y-1290709D03*
G01*
X3595000Y-1202120D03*
G01*
X3695000Y-1512159D03*
G01*
X3695000Y-1423580D03*
G01*
X3695000Y-1335000D03*
G01*
X3695000Y-1246419D03*
G01*
X3695000Y-1157829D03*
G01*
X3795000Y-1556449D03*
G01*
X3795000Y-1467869D03*
G01*
X3795000Y-1379290D03*
G01*
X3795000Y-1290709D03*
G01*
X3795000Y-1202120D03*
D33*
G01*
X3695000Y-887159D03*
G01*
X3695000Y-1871419D03*
M02*
