G04 Layer: BottomSilkscreenLayer*
G04 EasyEDA v6.5.15, 2022-10-20 09:24:52*
G04 028e3914a6f949ed9ca799ef75e4ed4f,10*
G04 Gerber Generator version 0.2*
G04 Scale: 100 percent, Rotated: No, Reflected: No *
G04 Dimensions in inches *
G04 leading zeros omitted , absolute positions ,3 integer and 6 decimal *
%FSLAX36Y36*%
%MOIN*%

%ADD10C,0.0070*%
%ADD11C,0.0100*%

%LPD*%
D10*
X3159090Y-2587273D02*
G01*
X3155455Y-2585455D01*
X3150000Y-2580000D01*
X3150000Y-2618182D01*
D11*
X3196819Y-2750000D02*
G01*
X3101819Y-2750000D01*
X3200000Y-2850000D02*
G01*
X700000Y-2850000D01*
X700000Y-2650000D01*
X3200000Y-2650000D01*
X3200000Y-2850000D01*
X3100000Y-2750000D02*
G01*
X3100000Y-2650000D01*
X3100000Y-2650000D02*
G01*
X3100000Y-2550000D01*
X3170000Y-2550000D01*
X3200000Y-2580000D01*
X3200000Y-2650000D01*
X3643999Y-74000D02*
G01*
X3565000Y-74000D01*
X3565000Y-74000D02*
G01*
X3565000Y-85999D01*
X3565000Y-85999D02*
G01*
X3643999Y-85999D01*
X3643999Y-85999D02*
G01*
X3643999Y-74000D01*
X3565000Y-625999D02*
G01*
X3565000Y-614000D01*
X3565000Y-614000D02*
G01*
X3643999Y-614000D01*
X3643999Y-614000D02*
G01*
X3643999Y-624000D01*
X3648999Y-2149000D02*
G01*
X3570000Y-2149000D01*
X3570000Y-2149000D02*
G01*
X3570000Y-2160999D01*
X3570000Y-2160999D02*
G01*
X3648999Y-2160999D01*
X3648999Y-2160999D02*
G01*
X3648999Y-2149000D01*
X3570000Y-2700999D02*
G01*
X3570000Y-2689000D01*
X3570000Y-2689000D02*
G01*
X3648999Y-2689000D01*
X3648999Y-2689000D02*
G01*
X3648999Y-2699000D01*
M02*
