G04 Layer: TopLayer*
G04 EasyEDA v6.5.22, 2022-10-31 10:37:17*
G04 028e3914a6f949ed9ca799ef75e4ed4f,10*
G04 Gerber Generator version 0.2*
G04 Scale: 100 percent, Rotated: No, Reflected: No *
G04 Dimensions in inches *
G04 leading zeros omitted , absolute positions ,3 integer and 6 decimal *
%FSLAX36Y36*%
%MOIN*%

%ADD10C,0.0100*%
%ADD11C,0.0120*%
%ADD12C,0.0600*%
%ADD13C,0.0512*%
%ADD14R,0.0787X0.0787*%
%ADD15C,0.0787*%
%ADD16O,0.11810999999999999X0.070866*%
%ADD17R,0.1181X0.0709*%
%ADD18C,0.0590*%
%ADD19R,0.0590X0.0590*%
%ADD20C,0.0860*%
%ADD21C,0.0598*%
%ADD22C,0.0709*%
%ADD23C,0.1500*%
%ADD24O,0.062X0.07*%
%ADD25R,0.0620X0.0620*%
%ADD26O,0.138X0.1*%
%ADD27O,0.1X0.138*%
%ADD28R,0.0560X0.0560*%
%ADD29R,0.0591X0.0591*%
%ADD30C,0.0591*%
%ADD31C,0.0630*%
%ADD32C,0.1417*%
%ADD33C,0.0240*%
%ADD34C,0.0153*%

%LPD*%
D10*
X2835000Y-2265000D02*
G01*
X2510000Y-1940000D01*
X1875000Y-1940000D01*
X1875000Y-1210000D01*
X1525000Y-860000D01*
X1525000Y-855000D01*
X1625000Y-855000D02*
G01*
X1970000Y-1200000D01*
X1970000Y-1865000D01*
X2530000Y-1865000D01*
X2715000Y-2050000D01*
X2985000Y-2050000D01*
X2985000Y-2350000D01*
X2840000Y-2350000D01*
X2840000Y-2455000D01*
X3120000Y-2455000D02*
G01*
X2840000Y-2455000D01*
X3571999Y-2534000D02*
G01*
X3571000Y-2535000D01*
X3525000Y-2535000D01*
X3525000Y-2430000D01*
X3465000Y-2370000D01*
X3305000Y-2370000D01*
X3305000Y-2125000D01*
X3240000Y-2060000D01*
X3175000Y-2060000D01*
X3175000Y-605000D01*
X3580000Y-605000D01*
X3576999Y-601999D01*
X3576999Y-504000D01*
X2250000Y-2700000D02*
G01*
X2250000Y-2600000D01*
X3506000Y-2600000D01*
X3571999Y-2534000D01*
X1850000Y-2085000D02*
G01*
X1850000Y-1995000D01*
X1780000Y-1925000D01*
X1780000Y-1355000D01*
X1105000Y-1355000D01*
X1230000Y-2305000D02*
G01*
X1375000Y-2305000D01*
X1455000Y-2225000D01*
X1950000Y-2225000D01*
X1950000Y-2085000D01*
X1630000Y-2485000D02*
G01*
X2210000Y-2485000D01*
X2240000Y-2455000D01*
X1725000Y-855000D02*
G01*
X1725000Y-550000D01*
X2730000Y-550000D01*
X2730000Y-240000D01*
X2820000Y-240000D01*
X2825000Y-235000D01*
X1825000Y-855000D02*
G01*
X1825000Y-610000D01*
X2835000Y-610000D01*
X2835000Y-420000D01*
X2830000Y-415000D01*
D11*
X479209Y-715000D02*
G01*
X675000Y-910790D01*
X675000Y-2305000D01*
X1285000Y-2065000D02*
G01*
X1460000Y-1890000D01*
X1675000Y-1890000D01*
X1675000Y-1460000D01*
X740000Y-2060000D02*
G01*
X890000Y-1910000D01*
X890000Y-1885000D01*
X895000Y-1890000D01*
X1375000Y-1890000D01*
X1375000Y-1460000D01*
X2525000Y-1755000D02*
G01*
X2525000Y-1090000D01*
X2225000Y-1755000D02*
G01*
X2225000Y-1130000D01*
X2125000Y-1755000D02*
G01*
X2125000Y-1300000D01*
X2025000Y-1755000D02*
G01*
X2025000Y-1470000D01*
X262829Y-362240D02*
G01*
X310590Y-410000D01*
X720000Y-410000D01*
X755000Y-375000D01*
X785000Y-375000D01*
X675000Y-2305000D02*
G01*
X775000Y-2405000D01*
X1150000Y-2405000D01*
X1230000Y-2325000D01*
X1230000Y-2305000D01*
X3795000Y-1467869D02*
G01*
X3795000Y-1470000D01*
X3875000Y-1550000D01*
X3875000Y-1725000D01*
X3535000Y-1725000D01*
X3535000Y-1965000D01*
X3375000Y-1965000D01*
X3795000Y-1379290D02*
G01*
X3820709Y-1379290D01*
X3875000Y-1325000D01*
X3875000Y-1060000D01*
X3595000Y-1060000D01*
X3595000Y-1020000D01*
X3370000Y-795000D01*
X353499Y-1908000D02*
G01*
X420000Y-1841500D01*
X420000Y-1110000D01*
X425000Y-1105000D01*
X487680Y-1105000D01*
X326260Y-1105000D02*
G01*
X325000Y-1103739D01*
X325000Y-565000D01*
X335000Y-555000D01*
X620000Y-555000D01*
X617159Y-552159D01*
X617159Y-456730D01*
X2625000Y-1755000D02*
G01*
X2625000Y-1025000D01*
D12*
G01*
X1583699Y-150000D03*
G01*
X1296300Y-150000D03*
G01*
X896300Y-610000D03*
G01*
X1183699Y-610000D03*
G01*
X85000Y-176300D03*
G01*
X85000Y-463699D03*
G01*
X251300Y-1505000D03*
G01*
X538699Y-1505000D03*
D13*
G01*
X995000Y-95630D03*
G01*
X995000Y-174369D03*
D12*
G01*
X479209Y-715000D03*
G01*
X380790Y-715000D03*
D14*
G01*
X326260Y-1105000D03*
D15*
G01*
X487680Y-1105000D03*
D16*
G01*
X800000Y-1060000D03*
G01*
X800000Y-1160000D03*
G01*
X800000Y-1260000D03*
G01*
X800000Y-1360000D03*
G01*
X800000Y-1460000D03*
D17*
G01*
X800000Y-1560000D03*
D18*
G01*
X1850000Y-2085000D03*
D19*
G01*
X1950000Y-2085000D03*
D20*
G01*
X156500Y-2105000D03*
G01*
X353499Y-2006999D03*
G01*
X353499Y-1908000D03*
G01*
X353499Y-2203000D03*
G01*
X353499Y-2301999D03*
D21*
G01*
X262829Y-173270D03*
G01*
X262829Y-267759D03*
G01*
X262829Y-362240D03*
G01*
X262829Y-456729D03*
G01*
X617159Y-456729D03*
G01*
X617159Y-362240D03*
G01*
X617159Y-267759D03*
G01*
X617159Y-173270D03*
D22*
G01*
X1225000Y-1755000D03*
G01*
X1325000Y-1755000D03*
G01*
X1425000Y-1755000D03*
G01*
X1525000Y-1755000D03*
G01*
X1625000Y-1755000D03*
G01*
X1725000Y-1755000D03*
G01*
X1825000Y-1755000D03*
G01*
X1925000Y-1755000D03*
G01*
X2025000Y-1755000D03*
G01*
X2125000Y-1755000D03*
G01*
X2225000Y-1755000D03*
G01*
X2325000Y-1755000D03*
G01*
X2425000Y-1755000D03*
G01*
X2525000Y-1755000D03*
G01*
X2625000Y-1755000D03*
G01*
X2625000Y-855000D03*
G01*
X2525000Y-855000D03*
G01*
X2425000Y-855000D03*
G01*
X2325000Y-855000D03*
G01*
X2225000Y-855000D03*
G01*
X2125000Y-855000D03*
G01*
X2025000Y-855000D03*
G01*
X1925000Y-855000D03*
G01*
X1825000Y-855000D03*
G01*
X1725000Y-855000D03*
G01*
X1625000Y-855000D03*
G01*
X1525000Y-855000D03*
G01*
X1425000Y-855000D03*
G01*
X1325000Y-855000D03*
G01*
X1225000Y-855000D03*
G01*
X1105000Y-1055000D03*
G01*
X1105000Y-1155000D03*
G01*
X1105000Y-1255000D03*
G01*
X1105000Y-1355000D03*
G01*
X1105000Y-1455000D03*
G01*
X1105000Y-1555000D03*
D23*
G01*
X1105000Y-905000D03*
G01*
X1105000Y-1705000D03*
D24*
G01*
X2950000Y-2800000D03*
G01*
X2950000Y-2700000D03*
G01*
X3050000Y-2800000D03*
G01*
X3050000Y-2700000D03*
G01*
X3150000Y-2800000D03*
D25*
G01*
X3150000Y-2700000D03*
D24*
G01*
X2850000Y-2700000D03*
G01*
X2850000Y-2800000D03*
G01*
X2750000Y-2700000D03*
G01*
X2750000Y-2800000D03*
G01*
X2650000Y-2700000D03*
G01*
X2650000Y-2800000D03*
G01*
X2550000Y-2700000D03*
G01*
X2550000Y-2800000D03*
G01*
X2450000Y-2700000D03*
G01*
X2450000Y-2800000D03*
G01*
X2350000Y-2700000D03*
G01*
X2350000Y-2800000D03*
G01*
X2250000Y-2700000D03*
G01*
X2250000Y-2800000D03*
G01*
X2150000Y-2700000D03*
G01*
X2150000Y-2800000D03*
G01*
X2050000Y-2700000D03*
G01*
X2050000Y-2800000D03*
G01*
X1950000Y-2700000D03*
G01*
X1950000Y-2800000D03*
G01*
X1850000Y-2800000D03*
G01*
X1750000Y-2800000D03*
G01*
X1850000Y-2700000D03*
G01*
X1750000Y-2700000D03*
G01*
X1650000Y-2700000D03*
G01*
X1550000Y-2700000D03*
G01*
X1450000Y-2700000D03*
G01*
X1350000Y-2700000D03*
G01*
X1250000Y-2700000D03*
G01*
X1150000Y-2700000D03*
G01*
X1050000Y-2700000D03*
G01*
X950000Y-2700000D03*
G01*
X850000Y-2700000D03*
G01*
X750000Y-2700000D03*
G01*
X1650000Y-2800000D03*
G01*
X1550000Y-2800000D03*
G01*
X1450000Y-2800000D03*
G01*
X1350000Y-2800000D03*
G01*
X1250000Y-2800000D03*
G01*
X1150000Y-2800000D03*
G01*
X1050000Y-2800000D03*
G01*
X950000Y-2800000D03*
G01*
X850000Y-2800000D03*
G01*
X750000Y-2800000D03*
D26*
G01*
X3695000Y-638000D03*
G01*
X3695000Y-104000D03*
D27*
G01*
X3726999Y-370000D03*
D28*
G01*
X3576999Y-420999D03*
G01*
X3576999Y-319000D03*
G01*
X3576999Y-235999D03*
G01*
X3576999Y-504000D03*
G01*
X3478999Y-504000D03*
G01*
X3481000Y-235999D03*
D26*
G01*
X3690000Y-2668000D03*
G01*
X3690000Y-2134000D03*
D27*
G01*
X3721999Y-2400000D03*
D28*
G01*
X3571999Y-2450999D03*
G01*
X3571999Y-2349000D03*
G01*
X3571999Y-2265999D03*
G01*
X3571999Y-2534000D03*
G01*
X3473999Y-2534000D03*
G01*
X3476000Y-2265999D03*
D29*
G01*
X1285000Y-2065000D03*
D30*
G01*
X1425000Y-2055000D03*
G01*
X1575000Y-2065000D03*
D29*
G01*
X740000Y-2060000D03*
D30*
G01*
X880000Y-2050000D03*
G01*
X1030000Y-2060000D03*
D15*
G01*
X3370000Y-795000D03*
G01*
X2970000Y-795000D03*
G01*
X3375000Y-1965000D03*
G01*
X2975000Y-1965000D03*
G01*
X3375000Y-1130000D03*
G01*
X2975000Y-1130000D03*
G01*
X3375000Y-965000D03*
G01*
X2975000Y-965000D03*
G01*
X3370000Y-1470000D03*
G01*
X2970000Y-1470000D03*
G01*
X3370000Y-1300000D03*
G01*
X2970000Y-1300000D03*
G01*
X3375000Y-1795000D03*
G01*
X2975000Y-1795000D03*
G01*
X3375000Y-1625000D03*
G01*
X2975000Y-1625000D03*
G01*
X1230000Y-2485000D03*
G01*
X1630000Y-2485000D03*
G01*
X1230000Y-2305000D03*
G01*
X1630000Y-2305000D03*
G01*
X1075000Y-2485000D03*
G01*
X675000Y-2485000D03*
G01*
X675000Y-2305000D03*
G01*
X1075000Y-2305000D03*
G01*
X3230000Y-415000D03*
G01*
X2830000Y-415000D03*
G01*
X3225000Y-235000D03*
G01*
X2825000Y-235000D03*
G01*
X3240000Y-2455000D03*
G01*
X2840000Y-2455000D03*
G01*
X3235000Y-2265000D03*
G01*
X2835000Y-2265000D03*
G01*
X2625000Y-420000D03*
G01*
X2225000Y-420000D03*
G01*
X2625000Y-240000D03*
G01*
X2225000Y-240000D03*
G01*
X2640000Y-2455000D03*
G01*
X2240000Y-2455000D03*
G01*
X2635000Y-2260000D03*
G01*
X2235000Y-2260000D03*
G01*
X1925000Y-705000D03*
G01*
X1925000Y-305000D03*
G01*
X1700000Y-375000D03*
G01*
X1300000Y-375000D03*
G01*
X785000Y-375000D03*
G01*
X1185000Y-375000D03*
G01*
X85000Y-580000D03*
G01*
X85000Y-980000D03*
G01*
X85000Y-1105000D03*
G01*
X85000Y-1505000D03*
D31*
G01*
X3595000Y-1556449D03*
G01*
X3595000Y-1467869D03*
G01*
X3595000Y-1379290D03*
G01*
X3595000Y-1290709D03*
G01*
X3595000Y-1202120D03*
G01*
X3695000Y-1512159D03*
G01*
X3695000Y-1423580D03*
G01*
X3695000Y-1335000D03*
G01*
X3695000Y-1246419D03*
G01*
X3695000Y-1157829D03*
G01*
X3795000Y-1556449D03*
G01*
X3795000Y-1467869D03*
G01*
X3795000Y-1379290D03*
G01*
X3795000Y-1290709D03*
G01*
X3795000Y-1202120D03*
D32*
G01*
X3695000Y-887159D03*
G01*
X3695000Y-1871419D03*
D33*
G01*
X2025000Y-1470000D03*
G01*
X2625000Y-1025000D03*
G01*
X2225000Y-1130000D03*
G01*
X2125000Y-1300000D03*
G01*
X2525000Y-1095000D03*
G01*
X1375000Y-1460000D03*
G01*
X1675000Y-1460000D03*
M02*
